<svg width="33" height="32" viewBox="0 0 33 32" fill="none" xmlns="http://www.w3.org/2000/svg">
<path fill-rule="evenodd" clip-rule="evenodd" d="M29.1135 23.4886C30.4176 21.2967 31.1666 18.7359 31.1666 16.0002C31.1666 7.89999 24.6002 1.3335 16.5 1.3335C8.3998 1.3335 1.83331 7.89999 1.83331 16.0002C1.83331 18.7359 2.58232 21.2966 3.88645 23.4886C3.89046 23.4953 3.89448 23.5021 3.8985 23.5088C4.04676 23.7571 4.20216 24.0006 4.3644 24.2392C7.00343 28.1188 11.4541 30.6668 16.5 30.6668C21.5458 30.6668 25.9965 28.1188 28.6356 24.2392C28.8022 23.9942 28.9616 23.7439 29.1135 23.4886ZM21.8333 12.0002C21.8333 14.9457 19.4455 17.3335 16.5 17.3335C13.5545 17.3335 11.1666 14.9457 11.1666 12.0002C11.1666 9.05464 13.5545 6.66683 16.5 6.66683C19.4455 6.66683 21.8333 9.05464 21.8333 12.0002ZM16.5 28.0002C12.8023 28.0002 9.49304 26.3288 7.28921 23.6927C9.68518 21.4024 12.9283 20.0002 16.5 20.0002C20.0716 20.0002 23.3148 21.4024 25.7107 23.6927C23.5069 26.3288 20.1976 28.0002 16.5 28.0002Z" fill="#853291"/>
</svg>
