<svg width="33" height="32" viewBox="0 0 33 32" fill="none" xmlns="http://www.w3.org/2000/svg">
<path fill-rule="evenodd" clip-rule="evenodd" d="M16.5 28.0002C19.8427 28.0002 22.8661 26.6334 25.042 24.4283C22.727 22.4941 19.75 21.3335 16.5 21.3335C13.2501 21.3335 10.2731 22.4941 7.95805 24.4283C10.1339 26.6334 13.1574 28.0002 16.5 28.0002ZM16.5 18.6668C20.3738 18.6668 23.926 20.0435 26.6941 22.3342C27.8388 20.4958 28.5 18.3252 28.5 16.0002C28.5 9.37275 23.1275 4.00016 16.5 4.00016C9.87262 4.00016 4.50004 9.37275 4.50004 16.0002C4.50004 18.3252 5.16128 20.4958 6.30595 22.3342C9.0741 20.0435 12.6263 18.6668 16.5 18.6668ZM31.1667 16.0002C31.1667 19.0545 30.2331 21.8908 28.6356 24.2392C28.3796 24.6155 28.1066 24.9793 27.8176 25.3295C25.1275 28.5891 21.0564 30.6668 16.5 30.6668C11.4542 30.6668 7.00349 28.1187 4.36446 24.2391C2.76701 21.8908 1.83337 19.0545 1.83337 16.0002C1.83337 7.89999 8.39986 1.3335 16.5 1.3335C24.6002 1.3335 31.1667 7.89999 31.1667 16.0002ZM20.5 12.0002C20.5 14.2093 18.7092 16.0002 16.5 16.0002C14.2909 16.0002 12.5 14.2093 12.5 12.0002C12.5 9.79102 14.2909 8.00016 16.5 8.00016C18.7092 8.00016 20.5 9.79102 20.5 12.0002ZM23.1667 12.0002C23.1667 15.6821 20.1819 18.6668 16.5 18.6668C12.8181 18.6668 9.83337 15.6821 9.83337 12.0002C9.83337 8.31826 12.8181 5.3335 16.5 5.3335C20.1819 5.3335 23.1667 8.31826 23.1667 12.0002Z" fill="#853291"/>
</svg>
